<svg id="visual" viewBox="0 0 600 900" width="600" height="900" xmlns="http://www.w3.org/2000/svg" xmlns:xlink="http://www.w3.org/1999/xlink" version="1.1"><g transform="translate(281.71947852515723 396.56411320569157)"><path d="M106.8 -162.9C148.2 -161 198.4 -152.2 221.2 -124C244 -95.7 239.5 -47.8 219.9 -11.3C200.3 25.2 165.5 50.3 151.3 93.6C137.2 136.9 143.6 198.4 121.8 234.3C100 270.2 50 280.6 12.5 259C-25 237.3 -50 183.6 -87.2 156.6C-124.5 129.6 -174 129.3 -191.6 107.7C-209.3 86 -195.1 43 -183.9 6.5C-172.6 -30 -164.3 -60 -148.8 -85.5C-133.4 -111.1 -111 -132.2 -85 -143C-59 -153.9 -29.5 -154.4 1.6 -157.2C32.7 -159.9 65.3 -164.8 106.8 -162.9" fill="#2a2532"></path></g></svg>