<svg id="visual" viewBox="0 0 450 900" width="450" height="900" xmlns="http://www.w3.org/2000/svg" xmlns:xlink="http://www.w3.org/1999/xlink" version="1.1"><g><g transform="translate(104 762)"><path d="M0 -94.5L81.8 -47.2L81.8 47.2L0 94.5L-81.8 47.2L-81.8 -47.2Z" fill="none" stroke="#3d2c57" stroke-width="2"></path></g><g transform="translate(220 242)"><path d="M0 -16L13.9 -8L13.9 8L0 16L-13.9 8L-13.9 -8Z" fill="none" stroke="#3d2c57" stroke-width="2"></path></g><g transform="translate(351 491)"><path d="M0 -23L19.9 -11.5L19.9 11.5L0 23L-19.9 11.5L-19.9 -11.5Z" stroke="#3d2c57" fill="none" stroke-width="2"></path></g><g transform="translate(157 477)"><path d="M0 -62L53.7 -31L53.7 31L0 62L-53.7 31L-53.7 -31Z" stroke="#3d2c57" fill="none" stroke-width="2"></path></g><g transform="translate(331 792)"><path d="M0 -87L75.3 -43.5L75.3 43.5L0 87L-75.3 43.5L-75.3 -43.5Z" stroke="#3d2c57" fill="none" stroke-width="2"></path></g></g></svg>