<svg id="visual" viewBox="0 0 960 540" width="960" height="540" xmlns="http://www.w3.org/2000/svg" xmlns:xlink="http://www.w3.org/1999/xlink" version="1.1"><rect x="0" y="0" width="960" height="540" fill="#ffffff"></rect><path d="M0 320L22.8 326.8C45.7 333.7 91.3 347.3 137 350.8C182.7 354.3 228.3 347.7 274 342.2C319.7 336.7 365.3 332.3 411.2 337.2C457 342 503 356 548.8 366.2C594.7 376.3 640.3 382.7 686 375.3C731.7 368 777.3 347 823 339.8C868.7 332.7 914.3 339.3 937.2 342.7L960 346L960 541L937.2 541C914.3 541 868.7 541 823 541C777.3 541 731.7 541 686 541C640.3 541 594.7 541 548.8 541C503 541 457 541 411.2 541C365.3 541 319.7 541 274 541C228.3 541 182.7 541 137 541C91.3 541 45.7 541 22.8 541L0 541Z" fill="#8a8a8a"></path><path d="M0 376L22.8 379.5C45.7 383 91.3 390 137 395.5C182.7 401 228.3 405 274 401.8C319.7 398.7 365.3 388.3 411.2 382.3C457 376.3 503 374.7 548.8 381.7C594.7 388.7 640.3 404.3 686 402.5C731.7 400.7 777.3 381.3 823 377.7C868.7 374 914.3 386 937.2 392L960 398L960 541L937.2 541C914.3 541 868.7 541 823 541C777.3 541 731.7 541 686 541C640.3 541 594.7 541 548.8 541C503 541 457 541 411.2 541C365.3 541 319.7 541 274 541C228.3 541 182.7 541 137 541C91.3 541 45.7 541 22.8 541L0 541Z" fill="#6b696e"></path><path d="M0 442L22.8 444.3C45.7 446.7 91.3 451.3 137 451.2C182.7 451 228.3 446 274 442.3C319.7 438.7 365.3 436.3 411.2 434.7C457 433 503 432 548.8 429.3C594.7 426.7 640.3 422.3 686 417.3C731.7 412.3 777.3 406.7 823 409.5C868.7 412.3 914.3 423.7 937.2 429.3L960 435L960 541L937.2 541C914.3 541 868.7 541 823 541C777.3 541 731.7 541 686 541C640.3 541 594.7 541 548.8 541C503 541 457 541 411.2 541C365.3 541 319.7 541 274 541C228.3 541 182.7 541 137 541C91.3 541 45.7 541 22.8 541L0 541Z" fill="#4e4a53"></path><path d="M0 436L22.8 438.5C45.7 441 91.3 446 137 451.7C182.7 457.3 228.3 463.7 274 469.3C319.7 475 365.3 480 411.2 476.5C457 473 503 461 548.8 460.8C594.7 460.7 640.3 472.3 686 474.3C731.7 476.3 777.3 468.7 823 469.3C868.7 470 914.3 479 937.2 483.5L960 488L960 541L937.2 541C914.3 541 868.7 541 823 541C777.3 541 731.7 541 686 541C640.3 541 594.7 541 548.8 541C503 541 457 541 411.2 541C365.3 541 319.7 541 274 541C228.3 541 182.7 541 137 541C91.3 541 45.7 541 22.8 541L0 541Z" fill="#322d3a"></path><path d="M0 514L22.8 512.5C45.7 511 91.3 508 137 506.7C182.7 505.3 228.3 505.7 274 500.5C319.7 495.3 365.3 484.7 411.2 485.8C457 487 503 500 548.8 504.7C594.7 509.3 640.3 505.7 686 500.7C731.7 495.7 777.3 489.3 823 491C868.7 492.7 914.3 502.3 937.2 507.2L960 512L960 541L937.2 541C914.3 541 868.7 541 823 541C777.3 541 731.7 541 686 541C640.3 541 594.7 541 548.8 541C503 541 457 541 411.2 541C365.3 541 319.7 541 274 541C228.3 541 182.7 541 137 541C91.3 541 45.7 541 22.8 541L0 541Z" fill="#191222"></path></svg>