<svg id="visual" viewBox="0 0 960 540" width="960" height="540" xmlns="http://www.w3.org/2000/svg" xmlns:xlink="http://www.w3.org/1999/xlink" version="1.1"><g><g transform="translate(467 335)"><path d="M0 -106.9L83.6 -66.7L104.2 23.8L46.4 96.3L-46.4 96.3L-104.2 23.8L-83.6 -66.7Z" fill="none" stroke="#3d2c57" stroke-width="2"></path></g><g transform="translate(696 308)"><path d="M0 -58L45.3 -36.2L56.5 12.9L25.2 52.3L-25.2 52.3L-56.5 12.9L-45.3 -36.2Z" fill="none" stroke="#3d2c57" stroke-width="2"></path></g><g transform="translate(267 227)"><path d="M0 -40L31.3 -24.9L39 8.9L17.4 36L-17.4 36L-39 8.9L-31.3 -24.9Z" stroke="#3d2c57" fill="none" stroke-width="2"></path></g><g transform="translate(829 119)"><path d="M0 -68L53.2 -42.4L66.3 15.1L29.5 61.3L-29.5 61.3L-66.3 15.1L-53.2 -42.4Z" stroke="#3d2c57" fill="none" stroke-width="2"></path></g><g transform="translate(544 124)"><path d="M0 -13L10.2 -8.1L12.7 2.9L5.6 11.7L-5.6 11.7L-12.7 2.9L-10.2 -8.1Z" stroke="#3d2c57" fill="none" stroke-width="2"></path></g><g transform="translate(123 431)"><path d="M0 -81L63.3 -50.5L79 18L35.1 73L-35.1 73L-79 18L-63.3 -50.5Z" stroke="#3d2c57" fill="none" stroke-width="2"></path></g></g></svg>