<?xml version="1.0" encoding="UTF-8"?>
<!-- Generator: visioncortex VTracer 0.6.3 -->
<svg version="1.1" xmlns="http://www.w3.org/2000/svg" width="1280" height="771">
<path d="M0 0 C79.86 0 159.72 0 242 0 C242 6.6 242 13.2 242 20 C169.4 20 96.8 20 22 20 C22.33 67.19 22.66 114.38 23 163 C90.98 163.33 158.96 163.66 229 164 C229 170.27 229 176.54 229 183 C160.69 183 92.38 183 22 183 C22 235.14 22 287.28 22 341 C95.26 341 168.52 341 244 341 C244 347.6 244 354.2 244 361 C163.48 361 82.96 361 0 361 C0 241.87 0 122.74 0 0 Z " fill="#000000" transform="translate(302,201)"/>
<path d="M0 0 C0.33 0.66 0.66 1.32 1 2 C0.65 2.5 0.29 3 -0.07 3.52 C-4.39 9.65 -8.64 15.82 -12.88 22 C-13.46 22.85 -14.04 23.7 -14.64 24.57 C-15.19 25.37 -15.74 26.17 -16.3 27 C-16.8 27.72 -17.29 28.44 -17.8 29.19 C-19.04 30.99 -19.04 30.99 -20 33 C-20.66 33 -21.32 33 -22 33 C-22.23 33.67 -22.45 34.33 -22.68 35.02 C-24.39 38.89 -26.67 42.21 -29.06 45.69 C-32.24 50.22 -32.24 50.22 -35 55 C-35.66 55 -36.32 55 -37 55 C-37.4 56.08 -37.4 56.08 -37.81 57.19 C-39 60 -40.27 62.48 -42 65 C-42.66 65 -43.32 65 -44 65 C-44.24 65.69 -44.48 66.39 -44.73 67.11 C-46.21 70.48 -48.17 73.34 -50.31 76.31 C-52.98 80.08 -55.57 83.85 -57.94 87.81 C-58.62 88.86 -59.3 89.92 -60 91 C-60.66 91 -61.32 91 -62 91 C-62.27 91.72 -62.54 92.44 -62.81 93.19 C-64 96 -65.27 98.48 -67 101 C-67.66 101 -68.32 101 -69 101 C-69.25 101.68 -69.5 102.36 -69.75 103.06 C-71.24 106.57 -73.07 109.72 -75 113 C-75.66 113 -76.32 113 -77 113 C-77.27 113.72 -77.54 114.44 -77.81 115.19 C-79 118 -80.27 120.48 -82 123 C-82.66 123 -83.32 123 -84 123 C-84.21 123.65 -84.43 124.3 -84.64 124.97 C-86.51 129.15 -89.07 132.7 -91.69 136.44 C-92.85 138.12 -94.02 139.81 -95.18 141.49 C-95.8 142.38 -96.42 143.27 -97.05 144.18 C-100.47 149.13 -103.86 154.1 -107.25 159.06 C-107.91 160.02 -108.56 160.98 -109.24 161.96 C-110.15 163.3 -110.15 163.3 -111.08 164.66 C-111.62 165.45 -112.16 166.24 -112.72 167.05 C-114.03 168.96 -114.03 168.96 -115 171 C-115.66 171 -116.32 171 -117 171 C-117.31 171.78 -117.62 172.57 -117.94 173.38 C-119 176 -119 176 -120 178 C-120.66 178 -121.32 178 -122 178 C-122 178.99 -122 179.98 -122 181 C-122.66 181 -123.32 181 -124 181 C-124.31 181.78 -124.62 182.57 -124.94 183.38 C-126 186 -126 186 -127 188 C-127.66 188 -128.32 188 -129 188 C-129.25 188.68 -129.5 189.36 -129.75 190.06 C-131.24 193.57 -133.07 196.72 -135 200 C-135.66 200 -136.32 200 -137 200 C-137.27 200.72 -137.54 201.44 -137.81 202.19 C-139 205 -140.27 207.48 -142 210 C-142.66 210 -143.32 210 -144 210 C-144.22 210.66 -144.44 211.32 -144.66 212 C-146.45 216.02 -148.9 219.42 -151.44 223 C-152.42 224.39 -153.39 225.79 -154.37 227.19 C-154.83 227.84 -155.29 228.49 -155.76 229.17 C-156.82 230.73 -157.78 232.36 -158.72 234 C-159.35 234.99 -159.35 234.99 -160 236 C-160.66 236 -161.32 236 -162 236 C-162.27 236.72 -162.54 237.44 -162.81 238.19 C-164 241 -165.27 243.48 -167 246 C-167.66 246 -168.32 246 -169 246 C-169.25 246.68 -169.5 247.36 -169.75 248.06 C-171.24 251.57 -173.07 254.72 -175 258 C-175.66 258 -176.32 258 -177 258 C-177.27 258.72 -177.54 259.44 -177.81 260.19 C-179 263 -180.27 265.48 -182 268 C-182.66 268 -183.32 268 -184 268 C-184.25 268.68 -184.5 269.36 -184.75 270.06 C-186.24 273.57 -188.07 276.72 -190 280 C-190.66 280 -191.32 280 -192 280 C-192.27 280.72 -192.54 281.44 -192.81 282.19 C-194 285 -195.27 287.48 -197 290 C-197.66 290 -198.32 290 -199 290 C-199.38 291.08 -199.38 291.08 -199.77 292.18 C-201.1 295.23 -202.73 297.54 -204.75 300.19 C-208.12 304.69 -211.04 309.29 -213.77 314.2 C-214.18 314.79 -214.58 315.39 -215 316 C-215.66 316 -216.32 316 -217 316 C-217.39 317.08 -217.39 317.08 -217.79 318.19 C-219.05 321.12 -220.56 323.42 -222.44 326 C-224.29 328.57 -226.03 331.06 -227.6 333.81 C-228.06 334.53 -228.52 335.26 -229 336 C-229.66 336 -230.32 336 -231 336 C-231.36 337.01 -231.36 337.01 -231.72 338.04 C-233.31 341.72 -235.34 344.95 -237.5 348.31 C-237.9 348.96 -238.31 349.6 -238.72 350.27 C-239.76 351.88 -240.87 353.45 -242 355 C-242.66 355 -243.32 355 -244 355 C-244.27 355.72 -244.54 356.44 -244.81 357.19 C-246 360 -247.27 362.48 -249 365 C-249.66 365 -250.32 365 -251 365 C-252.48 367.6 -252.48 367.6 -253 371 C-251.48 373.74 -250.08 375.8 -248.12 378.19 C-247.1 379.51 -246.08 380.83 -245.05 382.15 C-244.54 382.8 -244.02 383.44 -243.49 384.11 C-241.37 386.8 -239.34 389.55 -237.31 392.31 C-236.67 393.17 -236.03 394.04 -235.36 394.93 C-234 397 -234 397 -234 399 C-233.34 399 -232.68 399 -232 399 C-229 403.38 -229 403.38 -229 406 C-228.34 406 -227.68 406 -227 406 C-224 410.38 -224 410.38 -224 413 C-223.34 413 -222.68 413 -222 413 C-220.58 414.97 -219.29 416.95 -218 419 C-216.99 420.57 -215.96 422.13 -214.94 423.69 C-214.45 424.43 -213.97 425.18 -213.46 425.95 C-212.1 427.98 -212.1 427.98 -210.55 429.42 C-209.04 430.96 -207.89 432.48 -206.69 434.27 C-206.04 435.22 -206.04 435.22 -205.38 436.19 C-204.93 436.87 -204.47 437.55 -204 438.25 C-199.61 444.73 -195.08 451.07 -190.35 457.3 C-187 461.79 -187 461.79 -187 464 C-186.34 464 -185.68 464 -185 464 C-182 468.38 -182 468.38 -182 471 C-181.34 471 -180.68 471 -180 471 C-177 475.38 -177 475.38 -177 478 C-176.34 478 -175.68 478 -175 478 C-172.4 481.5 -170.45 484.89 -169 489 C-168.34 489 -167.68 489 -167 489 C-164 493.38 -164 493.38 -164 496 C-163.34 496 -162.68 496 -162 496 C-159 500.38 -159 500.38 -159 503 C-158.34 503 -157.68 503 -157 503 C-155.12 505.44 -153.36 507.9 -151.62 510.44 C-150.54 512.01 -149.45 513.58 -148.36 515.14 C-147.52 516.36 -147.52 516.36 -146.67 517.59 C-144.11 521.29 -141.53 524.96 -138.94 528.62 C-138.45 529.32 -137.96 530.01 -137.46 530.73 C-134.94 534.29 -132.4 537.83 -129.8 541.33 C-129.29 542.02 -128.78 542.71 -128.25 543.43 C-127.27 544.74 -126.29 546.05 -125.3 547.36 C-122 551.78 -122 551.78 -122 554 C-121.34 554 -120.68 554 -120 554 C-120 554.66 -120 555.32 -120 556 C-124.33 556.29 -128.66 556.47 -133 556.62 C-134.22 556.71 -135.44 556.79 -136.7 556.88 C-145.63 557.12 -145.63 557.12 -149.51 553.95 C-151.57 551.39 -153.31 548.81 -155 546 C-155.79 544.88 -156.59 543.77 -157.4 542.67 C-158.05 541.71 -158.7 540.74 -159.38 539.75 C-162.66 534.94 -165.99 530.17 -169.38 525.44 C-169.79 524.85 -170.21 524.27 -170.64 523.67 C-172.32 521.32 -174.01 518.99 -175.79 516.72 C-177 515 -177 515 -177 513 C-177.66 513 -178.32 513 -179 513 C-182 508.62 -182 508.62 -182 506 C-182.66 506 -183.32 506 -184 506 C-187 501.62 -187 501.62 -187 499 C-187.66 499 -188.32 499 -189 499 C-191.6 495.5 -193.55 492.11 -195 488 C-195.66 488 -196.32 488 -197 488 C-200 483.62 -200 483.62 -200 481 C-200.66 481 -201.32 481 -202 481 C-205 476.62 -205 476.62 -205 474 C-205.66 474 -206.32 474 -207 474 C-208.42 472.13 -209.76 470.2 -211.06 468.25 C-214.86 462.61 -218.83 457.16 -222.96 451.75 C-229 443.61 -229 443.61 -229 441 C-229.66 441 -230.32 441 -231 441 C-234 436.62 -234 436.62 -234 434 C-234.66 434 -235.32 434 -236 434 C-238.6 430.5 -240.55 427.11 -242 423 C-242.66 423 -243.32 423 -244 423 C-247 418.62 -247 418.62 -247 416 C-247.66 416 -248.32 416 -249 416 C-252 411.62 -252 411.62 -252 409 C-252.66 409 -253.32 409 -254 409 C-255.8 406.74 -257.47 404.49 -259.12 402.12 C-259.59 401.47 -260.06 400.82 -260.54 400.15 C-264 395.26 -264 395.26 -264 393 C-264.66 393 -265.32 393 -266 393 C-267 391.67 -268 390.33 -269 389 C-269.66 389 -270.32 389 -271 389 C-271.31 389.78 -271.62 390.57 -271.94 391.38 C-273 394 -273 394 -274 396 C-274.66 396 -275.32 396 -276 396 C-276.31 396.78 -276.62 397.57 -276.94 398.38 C-278 401 -278 401 -279 403 C-279.66 403 -280.32 403 -281 403 C-281.25 403.7 -281.5 404.4 -281.75 405.12 C-283.17 408.4 -284.87 411.14 -287 414 C-287.66 414 -288.32 414 -289 414 C-289.46 415.18 -289.46 415.18 -289.94 416.38 C-291 419 -291 419 -292 421 C-292.66 421 -293.32 421 -294 421 C-294.46 422.18 -294.46 422.18 -294.94 423.38 C-296 426 -296 426 -297 428 C-297.66 428 -298.32 428 -299 428 C-299.21 428.66 -299.41 429.32 -299.62 430 C-300.82 432.6 -301.96 434.4 -303.69 436.64 C-306.99 440.98 -310.19 445.39 -313.38 449.81 C-314.52 451.4 -315.67 452.99 -316.82 454.59 C-317.36 455.35 -317.91 456.11 -318.48 456.89 C-320.42 459.58 -322.36 462.26 -324.31 464.94 C-324.92 465.77 -325.53 466.61 -326.16 467.47 C-327.49 469.3 -328.82 471.12 -330.16 472.93 C-330.87 473.9 -331.58 474.87 -332.31 475.88 C-332.95 476.74 -333.58 477.6 -334.24 478.49 C-336.06 481 -336.06 481 -337.61 483.82 C-338.07 484.54 -338.53 485.26 -339 486 C-339.66 486 -340.32 486 -341 486 C-341.46 487.18 -341.46 487.18 -341.94 488.38 C-343 491 -343 491 -344 493 C-344.66 493 -345.32 493 -346 493 C-346.25 493.71 -346.49 494.42 -346.75 495.14 C-348.16 498.37 -349.95 500.88 -352.06 503.69 C-354.76 507.2 -354.76 507.2 -357 511 C-357.66 511 -358.32 511 -359 511 C-359.2 511.66 -359.41 512.31 -359.62 512.99 C-361.54 517.17 -364.26 520.56 -367.06 524.19 C-368.16 525.62 -369.25 527.05 -370.35 528.48 C-370.83 529.11 -371.32 529.74 -371.82 530.38 C-373.07 532 -373.07 532 -374 534 C-374.66 534 -375.32 534 -376 534 C-376.31 534.78 -376.62 535.57 -376.94 536.38 C-378 539 -378 539 -379 541 C-379.66 541 -380.32 541 -381 541 C-381.31 541.78 -381.62 542.57 -381.94 543.38 C-383 546 -383 546 -384 548 C-384.66 548 -385.32 548 -386 548 C-386.27 548.76 -386.54 549.53 -386.81 550.31 C-388.01 553.03 -388.66 554.24 -391 556 C-393.73 556.34 -393.73 556.34 -396.98 556.29 C-398.73 556.28 -398.73 556.28 -400.51 556.26 C-401.72 556.24 -402.94 556.21 -404.19 556.19 C-405.41 556.17 -406.64 556.16 -407.9 556.15 C-410.94 556.11 -413.97 556.06 -417 556 C-415.5 552.95 -413.86 550.1 -412 547.25 C-411.48 546.45 -410.97 545.65 -410.44 544.83 C-409.96 544.22 -409.49 543.62 -409 543 C-408.34 543 -407.68 543 -407 543 C-406.69 542.22 -406.38 541.43 -406.06 540.62 C-405 538 -405 538 -404 536 C-403.34 536 -402.68 536 -402 536 C-401.69 535.22 -401.38 534.43 -401.06 533.62 C-400 531 -400 531 -399 529 C-398.34 529 -397.68 529 -397 529 C-396.75 528.3 -396.5 527.6 -396.25 526.88 C-394.83 523.6 -393.13 520.86 -391 518 C-390.34 518 -389.68 518 -389 518 C-388.73 517.27 -388.46 516.55 -388.19 515.8 C-387.01 513.03 -385.66 510.69 -384 508.19 C-383.48 507.4 -382.97 506.61 -382.44 505.79 C-381.73 504.91 -381.73 504.91 -381 504 C-380.34 504 -379.68 504 -379 504 C-378.75 503.29 -378.5 502.59 -378.25 501.86 C-376.84 498.63 -375.07 496.04 -373 493.19 C-371.95 491.72 -371.95 491.72 -370.88 490.23 C-370.26 489.49 -369.64 488.76 -369 488 C-368.34 488 -367.68 488 -367 488 C-366.69 487.22 -366.38 486.43 -366.06 485.62 C-365 483 -365 483 -364 481 C-363.34 481 -362.68 481 -362 481 C-361.69 480.22 -361.38 479.43 -361.06 478.62 C-360 476 -360 476 -359 474 C-358.34 474 -357.68 474 -357 474 C-356.75 473.3 -356.5 472.6 -356.25 471.88 C-354.83 468.6 -353.13 465.86 -351 463 C-350.34 463 -349.68 463 -349 463 C-348.54 461.82 -348.54 461.82 -348.06 460.62 C-347 458 -347 458 -346 456 C-345.34 456 -344.68 456 -344 456 C-343.54 454.82 -343.54 454.82 -343.06 453.62 C-342 451 -342 451 -341 449 C-340.34 449 -339.68 449 -339 449 C-338.75 448.29 -338.5 447.59 -338.25 446.86 C-336.84 443.63 -335.07 441.04 -333 438.19 C-331.95 436.72 -331.95 436.72 -330.88 435.23 C-330.26 434.49 -329.64 433.76 -329 433 C-328.34 433 -327.68 433 -327 433 C-326.54 431.82 -326.54 431.82 -326.06 430.62 C-325 428 -325 428 -324 426 C-323.34 426 -322.68 426 -322 426 C-321.54 424.82 -321.54 424.82 -321.06 423.62 C-320 421 -320 421 -319 419 C-318.34 419 -317.68 419 -317 419 C-316.75 418.29 -316.51 417.58 -316.25 416.86 C-314.84 413.63 -313.05 411.12 -310.94 408.31 C-308.24 404.8 -308.24 404.8 -306 401 C-305.34 401 -304.68 401 -304 401 C-303.54 399.82 -303.54 399.82 -303.06 398.62 C-302 396 -302 396 -301 394 C-300.34 394 -299.68 394 -299 394 C-298.75 393.29 -298.5 392.59 -298.25 391.86 C-296.84 388.63 -295.07 386.04 -293 383.19 C-291.95 381.72 -291.95 381.72 -290.88 380.23 C-290.26 379.49 -289.64 378.76 -289 378 C-288.34 378 -287.68 378 -287 378 C-285.92 375.35 -284.91 372.72 -284 370 C-284.89 368.09 -284.89 368.09 -286.38 366.12 C-287.19 364.95 -287.19 364.95 -288.03 363.75 C-288.68 362.85 -289.33 361.94 -290 361 C-291.22 359.28 -292.43 357.55 -293.64 355.82 C-294.46 354.66 -295.28 353.5 -296.1 352.34 C-299 348.22 -299 348.22 -299 346 C-299.66 346 -300.32 346 -301 346 C-302.51 344.1 -302.51 344.1 -304.12 341.62 C-304.66 340.81 -305.2 340 -305.76 339.16 C-307 337 -307 337 -307 335 C-307.66 335 -308.32 335 -309 335 C-312 330.62 -312 330.62 -312 328 C-312.66 328 -313.32 328 -314 328 C-317 323.62 -317 323.62 -317 321 C-317.66 321 -318.32 321 -319 321 C-320.43 319.16 -321.76 317.25 -323.06 315.31 C-323.86 314.12 -324.67 312.94 -325.47 311.75 C-325.88 311.13 -326.3 310.52 -326.72 309.88 C-327.99 308.01 -329.29 306.16 -330.59 304.31 C-331.21 303.43 -331.21 303.43 -331.85 302.53 C-333.01 300.88 -334.18 299.23 -335.35 297.58 C-337 295 -337 295 -337 293 C-337.66 293 -338.32 293 -339 293 C-342 288.62 -342 288.62 -342 286 C-342.66 286 -343.32 286 -344 286 C-345.34 284.26 -346.6 282.45 -347.81 280.62 C-348.62 279.43 -349.43 278.23 -350.24 277.04 C-350.68 276.39 -351.12 275.74 -351.58 275.07 C-354.13 271.35 -356.79 267.71 -359.44 264.06 C-360.55 262.53 -361.66 261 -362.77 259.46 C-363.58 258.35 -363.58 258.35 -364.41 257.2 C-367.24 253.29 -370.04 249.35 -372.84 245.41 C-374.45 243.16 -376.06 240.92 -377.77 238.74 C-379 237 -379 237 -379 235 C-379.66 235 -380.32 235 -381 235 C-384 230.62 -384 230.62 -384 228 C-384.66 228 -385.32 228 -386 228 C-389 223.62 -389 223.62 -389 221 C-389.66 221 -390.32 221 -391 221 C-392.52 218.88 -392.52 218.88 -394.25 216 C-396.93 211.64 -399.75 207.56 -402.93 203.56 C-404 202 -404 202 -404 200 C-404.66 200 -405.32 200 -406 200 C-406.99 197.52 -406.99 197.52 -408 195 C-403.79 194.77 -399.59 194.63 -395.38 194.5 C-394.19 194.43 -393 194.37 -391.77 194.3 C-383.12 194.1 -383.12 194.1 -379.96 196.63 C-378.42 198.68 -377.2 200.73 -376 203 C-375.3 203.96 -374.6 204.91 -373.88 205.9 C-373.01 207.12 -373.01 207.12 -372.12 208.38 C-371.53 209.21 -370.93 210.04 -370.32 210.9 C-369 213 -369 213 -369 215 C-368.34 215 -367.68 215 -367 215 C-364.4 218.5 -362.45 221.89 -361 226 C-360.34 226 -359.68 226 -359 226 C-356 230.38 -356 230.38 -356 233 C-355.34 233 -354.68 233 -354 233 C-352.63 234.76 -352.63 234.76 -351.12 237.12 C-350.6 237.94 -350.07 238.76 -349.53 239.61 C-349.03 240.4 -348.52 241.19 -348 242 C-347.21 243.15 -346.42 244.29 -345.62 245.44 C-344 248 -344 248 -344 250 C-343.34 250 -342.68 250 -342 250 C-339.4 253.5 -337.45 256.89 -336 261 C-335.34 261 -334.68 261 -334 261 C-331 265.38 -331 265.38 -331 268 C-330.34 268 -329.68 268 -329 268 C-326 272.38 -326 272.38 -326 275 C-325.34 275 -324.68 275 -324 275 C-322.57 276.84 -321.24 278.75 -319.94 280.69 C-319.14 281.88 -318.33 283.06 -317.53 284.25 C-317.12 284.87 -316.7 285.48 -316.28 286.12 C-315.01 287.99 -313.71 289.84 -312.41 291.69 C-311.79 292.57 -311.79 292.57 -311.15 293.47 C-309.99 295.12 -308.82 296.77 -307.65 298.42 C-306 301 -306 301 -306 303 C-305.34 303 -304.68 303 -304 303 C-301 307.38 -301 307.38 -301 310 C-300.34 310 -299.68 310 -299 310 C-297.1 312.46 -295.32 314.94 -293.56 317.5 C-293.04 318.26 -292.51 319.02 -291.97 319.8 C-290.86 321.39 -289.76 322.99 -288.67 324.58 C-287.04 326.94 -285.4 329.28 -283.76 331.62 C-282.76 333.06 -281.75 334.5 -280.75 335.94 C-280.03 336.96 -280.03 336.96 -279.3 338 C-276 342.77 -276 342.77 -276 345 C-275.34 345 -274.68 345 -274 345 C-272.71 346.53 -272.71 346.53 -271.38 348.5 C-270.93 349.15 -270.48 349.8 -270.02 350.47 C-269.52 351.23 -269.52 351.23 -269 352 C-264.99 348.3 -262.15 343.96 -259.18 339.43 C-258.17 337.92 -257.09 336.45 -256 335 C-255.34 335 -254.68 335 -254 335 C-253.69 334.22 -253.38 333.43 -253.06 332.62 C-252 330 -252 330 -251 328 C-250.34 328 -249.68 328 -249 328 C-248.69 327.22 -248.38 326.43 -248.06 325.62 C-247 323 -247 323 -246 321 C-245.34 321 -244.68 321 -244 321 C-243.75 320.29 -243.5 319.59 -243.25 318.86 C-241.84 315.63 -240.07 313.04 -238 310.19 C-237.3 309.21 -236.6 308.24 -235.88 307.23 C-235.26 306.49 -234.64 305.76 -234 305 C-233.34 305 -232.68 305 -232 305 C-231.69 304.22 -231.38 303.43 -231.06 302.62 C-230 300 -230 300 -229 298 C-228.34 298 -227.68 298 -227 298 C-226.69 297.22 -226.38 296.43 -226.06 295.62 C-225 293 -225 293 -224 291 C-223.34 291 -222.68 291 -222 291 C-221.75 290.29 -221.5 289.59 -221.25 288.86 C-219.84 285.63 -218.07 283.04 -216 280.19 C-215.3 279.21 -214.6 278.24 -213.88 277.23 C-213.26 276.49 -212.64 275.76 -212 275 C-211.34 275 -210.68 275 -210 275 C-209.75 274.28 -209.5 273.56 -209.24 272.82 C-207.89 269.74 -206.25 267.47 -204.19 264.81 C-199.57 258.79 -195.12 252.66 -190.69 246.5 C-187.58 242.17 -184.42 237.88 -181.19 233.64 C-179.93 232 -179.93 232 -179 230 C-178.34 230 -177.68 230 -177 230 C-176.69 229.22 -176.38 228.43 -176.06 227.62 C-175 225 -175 225 -174 223 C-173.34 223 -172.68 223 -172 223 C-171.69 222.22 -171.38 221.43 -171.06 220.62 C-170 218 -170 218 -169 216 C-168.34 216 -167.68 216 -167 216 C-166.75 215.29 -166.5 214.59 -166.25 213.86 C-164.84 210.63 -163.07 208.04 -161 205.19 C-160.3 204.21 -159.6 203.24 -158.88 202.23 C-158.26 201.49 -157.64 200.76 -157 200 C-156.34 200 -155.68 200 -155 200 C-154.64 198.96 -154.64 198.96 -154.28 197.89 C-152.77 194.48 -150.75 191.64 -148.5 188.69 C-148.1 188.14 -147.69 187.59 -147.28 187.02 C-146.24 185.64 -145.12 184.31 -144 183 C-143.34 183 -142.68 183 -142 183 C-141.81 182.34 -141.63 181.68 -141.44 181 C-139.75 177.47 -137.55 175.07 -134.94 172.18 C-130.83 167.55 -127.01 162.66 -123.69 157.44 C-123.13 156.63 -122.57 155.83 -122 155 C-121.34 155 -120.68 155 -120 155 C-119.67 153.68 -119.34 152.36 -119 151 C-118.34 151 -117.68 151 -117 151 C-116.73 150.2 -116.46 149.39 -116.19 148.56 C-115.8 147.72 -115.4 146.87 -115 146 C-114.01 145.67 -113.02 145.34 -112 145 C-111.29 143.35 -110.63 141.68 -110 140 C-108.5 137.69 -108.5 137.69 -107 136 C-106.34 136 -105.68 136 -105 136 C-104.69 135.01 -104.69 135.01 -104.38 134 C-102.51 129.93 -100.02 126.31 -97 123 C-96.34 123 -95.68 123 -95 123 C-94.75 122.46 -94.5 121.93 -94.25 121.38 C-92.69 118.42 -90.97 115.7 -89 113 C-88.34 113 -87.68 113 -87 113 C-86.81 112.34 -86.63 111.68 -86.44 111 C-84.74 107.45 -82.5 105.08 -79.87 102.19 C-77.4 99.3 -75.41 96.17 -73.35 92.98 C-71.8 90.71 -70.02 88.87 -68 87 C-67.67 86.34 -67.34 85.68 -67 85 C-66.34 85 -65.68 85 -65 85 C-64.67 83.68 -64.34 82.36 -64 81 C-63.34 81 -62.68 81 -62 81 C-61.81 80.34 -61.63 79.68 -61.44 79 C-59.75 75.47 -57.55 73.07 -54.94 70.18 C-50.83 65.55 -47.01 60.66 -43.69 55.44 C-43.13 54.63 -42.57 53.83 -42 53 C-41.34 53 -40.68 53 -40 53 C-39.77 52.47 -39.54 51.94 -39.3 51.4 C-37.57 48.21 -35.36 45.46 -33.12 42.62 C-30.55 39.35 -28.04 36.11 -25.8 32.59 C-25.21 31.73 -24.61 30.88 -24 30 C-23.34 30 -22.68 30 -22 30 C-21.73 29.44 -21.46 28.89 -21.19 28.31 C-19.89 25.79 -18.58 23.36 -17 21 C-16.34 21 -15.68 21 -15 21 C-14.54 20.07 -14.54 20.07 -14.06 19.12 C-13.38 17.75 -12.69 16.38 -12 15 C-11.34 15 -10.68 15 -10 15 C-9.76 14.28 -9.51 13.57 -9.26 12.83 C-7.85 9.65 -6.09 7.36 -3.88 4.69 C-3.15 3.8 -2.43 2.92 -1.68 2.01 C-1.13 1.35 -0.57 0.68 0 0 Z " fill="#000000" transform="translate(973,6)"/>
<path d="M0 0 C9.24 0 18.48 0 28 0 C32 6 32 6 32 8 C32.66 8 33.32 8 34 8 C35.47 10.1 36.81 12.18 38.12 14.38 C38.5 14.98 38.87 15.58 39.25 16.2 C42 20.73 42 20.73 42 23 C42.66 23 43.32 23 44 23 C45.73 25.34 45.73 25.34 47.62 28.38 C48.26 29.37 48.89 30.37 49.54 31.4 C51 34 51 34 51 36 C51.66 36 52.32 36 53 36 C54.47 38.1 55.81 40.18 57.12 42.38 C57.5 42.98 57.87 43.58 58.25 44.2 C61 48.73 61 48.73 61 51 C61.66 51 62.32 51 63 51 C64.3 52.91 65.52 54.88 66.69 56.88 C69.78 62.07 73.05 67.02 76.65 71.88 C77.98 73.96 78.57 75.59 79 78 C79.66 78 80.32 78 81 78 C81 78.99 81 79.98 81 81 C81.66 81 82.32 81 83 81 C84.51 83.12 84.51 83.12 86.12 85.88 C86.66 86.78 87.2 87.68 87.76 88.62 C89 91 89 91 89 93 C89.66 93 90.32 93 91 93 C91 93.99 91 94.98 91 96 C91.66 96 92.32 96 93 96 C94.3 97.91 95.52 99.88 96.69 101.88 C99.78 107.07 103.05 112.02 106.65 116.88 C107.98 118.96 108.57 120.59 109 123 C109.66 123 110.32 123 111 123 C112.47 125.1 113.81 127.18 115.12 129.38 C115.5 129.98 115.87 130.58 116.25 131.2 C119 135.73 119 135.73 119 138 C119.66 138 120.32 138 121 138 C122.47 140.1 123.81 142.18 125.12 144.38 C125.5 144.98 125.87 145.58 126.25 146.2 C129 150.73 129 150.73 129 153 C129.66 153 130.32 153 131 153 C132.47 155.1 133.81 157.18 135.12 159.38 C135.5 159.98 135.87 160.58 136.25 161.2 C139 165.73 139 165.73 139 168 C139.66 168 140.32 168 141 168 C142.47 170.1 143.81 172.18 145.12 174.38 C145.5 174.98 145.87 175.58 146.25 176.2 C149 180.73 149 180.73 149 183 C149.66 183 150.32 183 151 183 C152.69 185.27 152.69 185.27 154.56 188.25 C155.18 189.22 155.8 190.2 156.44 191.2 C157.76 193.57 158.54 195.36 159 198 C159.66 198 160.32 198 161 198 C162.29 199.68 162.29 199.68 163.62 201.88 C164.07 202.59 164.52 203.31 164.98 204.05 C166 206 166 206 166 208 C166.66 208 167.32 208 168 208 C169.47 210.1 170.81 212.18 172.12 214.38 C172.5 214.98 172.87 215.58 173.25 216.2 C176 220.73 176 220.73 176 223 C176.66 223 177.32 223 178 223 C178.56 224.01 179.13 225.02 179.71 226.06 C181.86 229.82 184.2 233.41 186.62 237 C187.51 238.32 188.4 239.65 189.29 240.97 C189.74 241.64 190.19 242.31 190.65 243 C192.78 246.16 194.89 249.33 197 252.5 C197.83 253.75 198.66 254.99 199.5 256.24 C201.18 258.77 202.86 261.29 204.54 263.82 C209.18 270.81 213.87 277.75 218.7 284.61 C221.28 288.34 223.67 292.19 226.1 296.02 C229.31 301.06 232.62 306.03 235.94 311 C236.6 312 237.27 313.01 237.95 314.04 C241.91 319.98 245.98 325.8 250.24 331.53 C251.97 333.95 253.5 336.43 255 339 C257.76 343.74 260.93 348.08 264.19 352.48 C265.62 354.47 266.89 356.41 268.06 358.56 C270.18 362.33 272.59 365.76 275.09 369.28 C278.49 374.12 281.73 379.07 285 384 C286.62 386.44 288.25 388.88 289.88 391.31 C290.73 392.59 291.58 393.87 292.43 395.14 C292.85 395.78 293.28 396.42 293.72 397.08 C295.61 399.92 295.61 399.92 297.51 402.76 C297.92 403.38 298.33 404 298.76 404.63 C299.58 405.87 300.41 407.11 301.23 408.35 C303.4 411.61 305.58 414.86 307.78 418.1 C308.24 418.78 308.69 419.45 309.16 420.14 C310.03 421.43 310.9 422.71 311.78 423.99 C313.96 427.22 315.72 430.31 317 434 C317.66 434 318.32 434 319 434 C319.87 435.55 319.87 435.55 320.75 437.12 C322.16 439.6 323.63 441.97 325.25 444.31 C327 447 327 447 327 449 C327.66 449 328.32 449 329 449 C330.47 451.1 331.81 453.18 333.12 455.38 C333.5 455.98 333.87 456.58 334.25 457.2 C337 461.73 337 461.73 337 464 C337.66 464 338.32 464 339 464 C340.47 466.1 341.81 468.18 343.12 470.38 C343.5 470.98 343.87 471.58 344.25 472.2 C347 476.73 347 476.73 347 479 C347.66 479 348.32 479 349 479 C350.47 481.1 351.81 483.18 353.12 485.38 C353.5 485.98 353.87 486.58 354.25 487.2 C357 491.73 357 491.73 357 494 C357.66 494 358.32 494 359 494 C360.47 496.1 361.81 498.18 363.12 500.38 C363.5 500.98 363.87 501.58 364.25 502.2 C367 506.73 367 506.73 367 509 C367.66 509 368.32 509 369 509 C370.45 511.01 371.77 513.02 373.06 515.12 C373.86 516.4 374.67 517.68 375.47 518.96 C375.88 519.62 376.3 520.29 376.72 520.97 C377.99 522.99 379.29 524.98 380.59 526.98 C381.01 527.61 381.42 528.24 381.85 528.89 C382.65 530.12 383.45 531.34 384.26 532.56 C387 536.78 387 536.78 387 539 C387.66 539 388.32 539 389 539 C390.29 540.68 390.29 540.68 391.62 542.88 C392.07 543.59 392.52 544.31 392.98 545.05 C394 547 394 547 394 549 C394.66 549 395.32 549 396 549 C396.33 550.65 396.66 552.3 397 554 C392.83 550.07 389.11 545.84 386 541 C386 540.34 386 539.68 386 539 C385.34 539 384.68 539 384 539 C382.27 536.78 380.65 534.56 379.06 532.25 C378.18 530.98 377.29 529.72 376.41 528.45 C376 527.85 375.58 527.25 375.15 526.63 C374.2 525.29 373.2 523.97 372.18 522.67 C371 521 371 521 371 519 C370.34 519 369.68 519 369 519 C367.27 516.78 365.65 514.56 364.06 512.25 C363.18 510.98 362.29 509.72 361.41 508.45 C361 507.85 360.58 507.25 360.15 506.63 C359.2 505.29 358.2 503.97 357.18 502.67 C356 501 356 501 356 499 C355.34 499 354.68 499 354 499 C352.55 497.26 351.19 495.46 349.88 493.62 C349.15 492.63 348.43 491.63 347.68 490.6 C346 488 346 488 346 486 C345.34 486 344.68 486 344 486 C341 481.62 341 481.62 341 479 C340.34 479 339.68 479 339 479 C337.55 477.26 336.19 475.46 334.88 473.62 C334.15 472.63 333.43 471.63 332.68 470.6 C331 468 331 468 331 466 C330.34 466 329.68 466 329 466 C326 461.62 326 461.62 326 459 C325.34 459 324.68 459 324 459 C322.27 456.78 320.65 454.56 319.06 452.25 C318.18 450.98 317.29 449.72 316.41 448.45 C316 447.85 315.58 447.25 315.15 446.63 C314.2 445.29 313.2 443.97 312.18 442.67 C311 441 311 441 311 439 C310.34 439 309.68 439 309 439 C307.27 436.78 305.65 434.56 304.06 432.25 C303.18 430.98 302.29 429.72 301.41 428.45 C301 427.85 300.58 427.25 300.15 426.63 C299.2 425.29 298.2 423.97 297.18 422.67 C296 421 296 421 296 419 C295.34 419 294.68 419 294 419 C292.27 416.78 290.65 414.56 289.06 412.25 C288.18 410.98 287.29 409.72 286.41 408.45 C286 407.85 285.58 407.25 285.15 406.63 C284.2 405.29 283.2 403.97 282.18 402.67 C281 401 281 401 281 399 C280.34 399 279.68 399 279 399 C277.55 397.26 276.19 395.46 274.88 393.62 C274.15 392.63 273.43 391.63 272.68 390.6 C271 388 271 388 271 386 C270.34 386 269.68 386 269 386 C266 381.62 266 381.62 266 379 C265.34 379 264.68 379 264 379 C262.55 377.26 261.19 375.46 259.88 373.62 C259.15 372.63 258.43 371.63 257.68 370.6 C256 368 256 368 256 366 C255.34 366 254.68 366 254 366 C252.74 364.42 252.74 364.42 251.31 362.19 C250.79 361.38 250.27 360.56 249.73 359.73 C249.16 358.83 248.59 357.93 248 357 C247.36 356.02 246.71 355.04 246.05 354.02 C241 346.26 241 346.26 241 344 C240.34 344 239.68 344 239 344 C237.39 341.8 235.9 339.6 234.44 337.31 C233.54 335.93 232.64 334.56 231.74 333.18 C231.28 332.48 230.83 331.78 230.36 331.06 C228.33 327.98 226.23 324.96 224.12 321.94 C222.75 319.96 221.37 317.98 220 316 C219.25 314.93 218.51 313.86 217.74 312.75 C216 310 216 310 216 308 C215.34 308 214.68 308 214 308 C212.71 306.32 212.71 306.32 211.38 304.12 C210.93 303.41 210.48 302.69 210.02 301.95 C209 300 209 300 209 298 C208.34 298 207.68 298 207 298 C205.49 295.88 205.49 295.88 203.88 293.12 C203.34 292.22 202.8 291.32 202.24 290.38 C201 288 201 288 201 286 C200.34 286 199.68 286 199 286 C197.71 284.32 197.71 284.32 196.38 282.12 C195.93 281.41 195.48 280.69 195.02 279.95 C194 278 194 278 194 276 C193.34 276 192.68 276 192 276 C190.49 273.88 190.49 273.88 188.88 271.12 C188.34 270.22 187.8 269.32 187.24 268.38 C186 266 186 266 186 264 C185.34 264 184.68 264 184 264 C182.8 262.32 181.69 260.58 180.62 258.81 C178.29 254.97 175.81 251.5 173 248 C171.99 246.34 170.99 244.67 170 243 C167.93 239.89 165.81 236.82 163.69 233.75 C161.45 230.5 159.22 227.25 157 224 C156.42 223.16 155.84 222.32 155.24 221.46 C154.7 220.65 154.15 219.85 153.58 219.02 C153.09 218.29 152.59 217.57 152.08 216.82 C151 215 151 215 151 213 C150.34 213 149.68 213 149 213 C147.52 210.95 147.52 210.95 145.81 208.12 C143.49 204.36 141.12 200.67 138.56 197.06 C135.33 192.49 132.22 187.85 129.13 183.18 C127.61 180.9 126.07 178.66 124.49 176.42 C124.08 175.83 123.66 175.24 123.23 174.63 C122.06 172.95 120.87 171.29 119.69 169.62 C118 167 118 167 118 165 C117.34 165 116.68 165 116 165 C114.71 163.32 114.71 163.32 113.38 161.12 C112.93 160.41 112.48 159.69 112.02 158.95 C111 157 111 157 111 155 C110.34 155 109.68 155 109 155 C107.49 152.88 107.49 152.88 105.88 150.12 C105.34 149.22 104.8 148.32 104.24 147.38 C103 145 103 145 103 143 C102.34 143 101.68 143 101 143 C99.71 141.32 99.71 141.32 98.38 139.12 C97.93 138.41 97.48 137.69 97.02 136.95 C96 135 96 135 96 133 C95.34 133 94.68 133 94 133 C91.68 129.06 89.57 125.31 88 121 C87.34 121 86.68 121 86 121 C84.71 119.32 84.71 119.32 83.38 117.12 C82.93 116.41 82.48 115.69 82.02 114.95 C81 113 81 113 81 111 C80.34 111 79.68 111 79 111 C78.48 110.05 77.97 109.1 77.44 108.12 C74.62 103.19 71.3 98.62 68 94 C64.14 88.54 60.32 83.04 56.56 77.5 C55.88 76.5 55.2 75.5 54.5 74.47 C53 72 53 72 53 70 C52.34 70 51.68 70 51 70 C49.71 68.32 49.71 68.32 48.38 66.12 C47.93 65.41 47.48 64.69 47.02 63.95 C46 62 46 62 46 60 C45.34 60 44.68 60 44 60 C42.71 58.32 42.71 58.32 41.38 56.12 C40.93 55.41 40.48 54.69 40.02 53.95 C39 52 39 52 39 50 C38.34 50 37.68 50 37 50 C35.49 47.88 35.49 47.88 33.88 45.12 C33.34 44.22 32.8 43.32 32.24 42.38 C31 40 31 40 31 38 C30.34 38 29.68 38 29 38 C27.68 35.69 26.36 33.38 25 31 C23.71 33.59 23.86 35.47 23.85 38.37 C23.83 40.09 23.83 40.09 23.82 41.84 C23.81 43.11 23.81 44.38 23.8 45.69 C23.8 47.05 23.79 48.4 23.78 49.76 C23.75 53.49 23.73 57.23 23.71 60.96 C23.69 64.99 23.67 69.01 23.64 73.03 C23.6 80.01 23.56 86.98 23.52 93.96 C23.47 104.04 23.41 114.12 23.35 124.21 C23.25 140.57 23.16 156.93 23.07 173.29 C22.98 189.18 22.89 205.08 22.8 220.97 C22.79 221.95 22.79 222.93 22.78 223.94 C22.75 228.85 22.72 233.76 22.7 238.68 C22.46 279.45 22.23 320.23 22 361 C14.74 361 7.48 361 0 361 C0 241.87 0 122.74 0 0 Z " fill="#000000" transform="translate(0,201)"/>
<path d="M0 0 C91.08 0 182.16 0 276 0 C276 6.6 276 13.2 276 20 C234.09 20 192.18 20 149 20 C149 132.53 149 245.06 149 361 C141.41 361 133.82 361 126 361 C126 248.47 126 135.94 126 20 C84.42 20 42.84 20 0 20 C0 13.4 0 6.8 0 0 Z " fill="#000000" transform="translate(862,201)"/>
<path d="M0 0 C0.99 0.33 1.98 0.66 3 1 C3 1.66 3 2.32 3 3 C3.96 3.4 3.96 3.4 4.94 3.81 C7 5 7 5 8 8 C8.66 8 9.32 8 10 8 C12.2 12.68 13 14.63 13 20 C9.04 20 5.08 20 1 20 C-0.52 17.02 -1.94 14.18 -3 11 C-9.36 8.37 -16.89 7.53 -23.45 9.88 C-25.65 11.07 -27.29 12.17 -29 14 C-30.15 17.5 -30.15 17.5 -30 21 C-30 22.32 -30 23.64 -30 25 C-23.32 27.8 -16.66 29.9 -9.56 31.38 C-0.95 33.33 6.47 36.12 11.95 43.32 C13.42 45.66 13.87 47.22 14 50 C14.05 50.74 14.1 51.49 14.15 52.25 C14.42 59.01 13.9 64.74 9.27 69.95 C1.37 77.26 -6.94 79.3 -17.6 79.16 C-27.03 78.54 -34.6 76.25 -41 69 C-44.61 64.51 -45.46 61.76 -45 56 C-41.04 56 -37.08 56 -33 56 C-32.55 56.97 -32.09 57.94 -31.62 58.94 C-30.34 62.07 -30.34 62.07 -28 63 C-28 63.66 -28 64.32 -28 65 C-19.09 67.31 -12.4 68.31 -3.92 64.13 C-1.48 62.69 -0.15 61.62 1 59 C1.28 55.55 1.1 53.29 0 50 C-0.66 50 -1.32 50 -2 50 C-2 49.34 -2 48.68 -2 48 C-11.98 45.24 -21.99 42.62 -32 40 C-32 39.34 -32 38.68 -32 38 C-32.58 37.92 -33.15 37.83 -33.75 37.75 C-36.65 36.78 -38.04 35.31 -40 33 C-40 32.34 -40 31.68 -40 31 C-40.66 31 -41.32 31 -42 31 C-44.01 24.98 -44.07 16.83 -42.35 10.67 C-39.16 4.62 -33.74 0.34 -27.38 -1.88 C-17.95 -4.29 -8.93 -3.73 0 0 Z " fill="#000000" transform="translate(1266,459)"/>
<path d="M0 0 C3.96 0 7.92 0 12 0 C12.05 7.39 12.08 14.78 12.1 22.17 C12.11 25.6 12.13 29.03 12.15 32.47 C12.18 36.42 12.19 40.38 12.2 44.34 C12.21 45.55 12.22 46.77 12.23 48.02 C12.23 58.15 12.17 66.86 4.87 74.38 C-0.7 79.22 -6.69 80.27 -13.89 80.15 C-20.19 79.7 -25.06 77.95 -30 74 C-30 73.34 -30 72.68 -30 72 C-30.66 72 -31.32 72 -32 72 C-35.76 67.49 -35.62 62.63 -36 57 C-32.04 57 -28.08 57 -24 57 C-23.55 58.11 -23.09 59.23 -22.62 60.38 C-21.28 63.96 -21.28 63.96 -19 66 C-14.15 67.11 -8.73 67.62 -4 66 C-2.58 63.67 -2.58 63.67 -2 61 C-1.67 60.01 -1.34 59.02 -1 58 C-0.88 56.11 -0.82 54.22 -0.79 52.34 C-0.77 51.17 -0.75 50.01 -0.73 48.82 C-0.72 47.56 -0.7 46.31 -0.68 45.02 C-0.66 43.74 -0.64 42.45 -0.62 41.13 C-0.57 37.72 -0.52 34.32 -0.47 30.91 C-0.42 27.43 -0.36 23.95 -0.31 20.47 C-0.2 13.65 -0.1 6.82 0 0 Z " fill="#000000" transform="translate(1193,458)"/>
<path d="M0 0 C0.99 0.66 1.98 1.32 3 2 C3 2.66 3 3.32 3 4 C3.66 4 4.32 4 5 4 C5.77 12.02 5.77 12.02 2.94 15.62 C-0.87 17.41 -2.98 17.04 -7 16 C-10 14 -10 14 -10.81 10.69 C-11 6.98 -10.89 5.15 -9 2 C-6.07 -0.12 -3.55 -0.36 0 0 Z " fill="#000000" transform="translate(1138,520)"/>
<path d="M0 0 C0.66 0 1.32 0 2 0 C2.66 1.65 3.32 3.3 4 5 C3.34 5 2.68 5 2 5 C1.34 3.35 0.68 1.7 0 0 Z " fill="#000000" transform="translate(397,755)"/>
<path d="M0 0 C0.99 0.5 0.99 0.5 2 1 C1.67 1.66 1.34 2.32 1 3 C0.67 2.01 0.34 1.02 0 0 Z " fill="#000000" transform="translate(402,762)"/>
<path d="M0 0 C0.66 0 1.32 0 2 0 C1.67 0.66 1.34 1.32 1 2 C0.67 1.34 0.34 0.68 0 0 Z " fill="#000000" transform="translate(404,765)"/>
<path d="M0 0 C0.99 0.5 0.99 0.5 2 1 C1.01 1.5 1.01 1.5 0 2 C0 1.34 0 0.68 0 0 Z " fill="#000000" transform="translate(974,4)"/>
<path d="" fill="#000000" transform="translate(0,0)"/>
<path d="" fill="#000000" transform="translate(0,0)"/>
<path d="" fill="#000000" transform="translate(0,0)"/>
</svg>
